<mxfile host="app.diagrams.net" modified="2024-05-03T03:07:56.176Z" agent="Mozilla/5.0 (Windows NT 10.0; Win64; x64) AppleWebKit/537.36 (KHTML, like Gecko) Chrome/109.0.0.0 Safari/537.36 SLBrowser/9.0.3.4111 SLBChan/128" etag="ZGvhI7MJbADuZMhRWUEw" version="24.3.1" type="github">
  <diagram id="wFE0QG_FPsp0jaGvCLVb" name="Page-1">
    <mxGraphModel dx="1665" dy="1296" grid="0" gridSize="10" guides="0" tooltips="1" connect="1" arrows="1" fold="1" page="0" pageScale="1" pageWidth="850" pageHeight="1100" math="0" shadow="0">
      <root>
        <mxCell id="0" />
        <mxCell id="1" parent="0" />
        <object label="&lt;span style=&quot;font-size: 12pt; font-family: 宋体; font-weight: normal;&quot;&gt;社区空巢老人互助养老&lt;span style=&quot;&quot; lang=&quot;EN-US&quot;&gt;APP&lt;/span&gt;&lt;/span&gt;" placeholders="1" link="draw.io" id="K07zwGf8ft_wYBGuu_Em-2">
          <mxCell style="whiteSpace=wrap;html=1;strokeWidth=2;fillColor=swimlane;fontStyle=1;spacingTop=0;rounded=0;arcSize=9;points=[];fontFamily=Permanent Marker;hachureGap=8;fillWeight=1;" vertex="1" parent="1">
            <mxGeometry x="257" y="-8" width="514" height="39" as="geometry" />
          </mxCell>
        </object>
        <mxCell id="K07zwGf8ft_wYBGuu_Em-7" value="" style="rounded=1;whiteSpace=wrap;html=1;hachureGap=4;fontFamily=Architects Daughter;fontSource=https%3A%2F%2Ffonts.googleapis.com%2Fcss%3Ffamily%3DArchitects%2BDaughter;strokeColor=default;fillColor=none;strokeWidth=2;" vertex="1" parent="1">
          <mxGeometry x="257" y="158" width="517" height="89" as="geometry" />
        </mxCell>
        <object label="&lt;span style=&quot;font-weight: normal;&quot;&gt;数据库服务器&lt;/span&gt;" placeholders="1" link="draw.io" id="K07zwGf8ft_wYBGuu_Em-9">
          <mxCell style="whiteSpace=wrap;html=1;strokeWidth=2;fillColor=swimlane;fontStyle=1;spacingTop=0;rounded=0;arcSize=9;points=[];fontFamily=Permanent Marker;hachureGap=8;fillWeight=1;" vertex="1" parent="1">
            <mxGeometry x="68" y="177.5" width="99" height="50" as="geometry" />
          </mxCell>
        </object>
        <mxCell id="K07zwGf8ft_wYBGuu_Em-11" value="&lt;font data-font-src=&quot;https://fonts.googleapis.com/css?family=%E5%AE%8B%E4%BD%93&quot; face=&quot;宋体&quot;&gt;MySQL&lt;/font&gt;" style="strokeWidth=2;html=1;shape=mxgraph.flowchart.database;whiteSpace=wrap;hachureGap=4;fontFamily=Architects Daughter;fontSource=https%3A%2F%2Ffonts.googleapis.com%2Fcss%3Ffamily%3DArchitects%2BDaughter;" vertex="1" parent="1">
          <mxGeometry x="482" y="172.5" width="60" height="60" as="geometry" />
        </mxCell>
        <object label="&lt;span style=&quot;font-weight: normal;&quot;&gt;数据访问层&lt;/span&gt;" placeholders="1" link="draw.io" id="K07zwGf8ft_wYBGuu_Em-13">
          <mxCell style="whiteSpace=wrap;html=1;strokeWidth=2;fillColor=swimlane;fontStyle=1;spacingTop=0;rounded=0;arcSize=9;points=[];fontFamily=Permanent Marker;hachureGap=8;fillWeight=1;" vertex="1" parent="1">
            <mxGeometry x="68" y="319" width="99" height="50" as="geometry" />
          </mxCell>
        </object>
        <object label="&lt;span style=&quot;color: rgba(0, 0, 0, 0); font-family: monospace; font-size: 0px; font-weight: 400; text-align: start; white-space: nowrap;&quot;&gt;%3CmxGraphModel%3E%3Croot%3E%3CmxCell%20id%3D%220%22%2F%3E%3CmxCell%20id%3D%221%22%20parent%3D%220%22%2F%3E%3Cobject%20label%3D%22%26lt%3Bspan%20style%3D%26quot%3Bfont-weight%3A%20normal%3B%26quot%3B%26gt%3Bdraw.io%26lt%3B%2Fspan%26gt%3B%22%20placeholders%3D%221%22%20link%3D%22draw.io%22%20id%3D%222%22%3E%3CmxCell%20style%3D%22whiteSpace%3Dwrap%3Bhtml%3D1%3BstrokeWidth%3D2%3BfillColor%3Dswimlane%3BfontStyle%3D1%3BspacingTop%3D0%3Brounded%3D0%3BarcSize%3D9%3Bpoints%3D%5B%5D%3BfontFamily%3DPermanent%20Marker%3BhachureGap%3D8%3BfillWeight%3D1%3B%22%20vertex%3D%221%22%20parent%3D%221%22%3E%3CmxGeometry%20x%3D%2227%22%20y%3D%2296%22%20width%3D%22140%22%20height%3D%2280%22%20as%3D%22geometry%22%2F%3E%3C%2FmxCell%3E%3C%2Fobject%3E%3C%2Froot%3E%3C%2FmxGraphModel%3E&lt;/span&gt;" placeholders="1" link="draw.io" id="K07zwGf8ft_wYBGuu_Em-14">
          <mxCell style="whiteSpace=wrap;html=1;strokeWidth=2;fillColor=swimlane;fontStyle=1;spacingTop=0;rounded=1;arcSize=9;points=[];fontFamily=Permanent Marker;hachureGap=8;fillWeight=1;" vertex="1" parent="1">
            <mxGeometry x="281" y="304" width="459" height="80" as="geometry" />
          </mxCell>
        </object>
        <object label="&lt;span style=&quot;font-size: 14px; text-align: left; white-space: pre; background-color: rgb(255, 255, 255);&quot;&gt;&lt;font face=&quot;Times New Roman&quot;&gt;Mybatis&lt;/font&gt;&lt;/span&gt;" placeholders="1" link="draw.io" id="K07zwGf8ft_wYBGuu_Em-16">
          <mxCell style="whiteSpace=wrap;html=1;strokeWidth=2;fillColor=swimlane;fontStyle=0;spacingTop=0;rounded=0;arcSize=9;points=[];fontFamily=Permanent Marker;hachureGap=8;fillWeight=1;strokeColor=default;" vertex="1" parent="1">
            <mxGeometry x="563" y="327" width="135.5" height="34" as="geometry" />
          </mxCell>
        </object>
        <object label="&lt;font face=&quot;Times New Roman&quot;&gt;DAO&lt;/font&gt;" placeholders="1" link="draw.io" id="K07zwGf8ft_wYBGuu_Em-18">
          <mxCell style="whiteSpace=wrap;html=1;strokeWidth=2;fillColor=swimlane;fontStyle=0;spacingTop=0;rounded=0;arcSize=9;points=[];fontFamily=Permanent Marker;hachureGap=8;fillWeight=1;strokeColor=default;" vertex="1" parent="1">
            <mxGeometry x="358" y="327" width="135.5" height="34" as="geometry" />
          </mxCell>
        </object>
        <object label="&lt;span style=&quot;font-weight: normal;&quot;&gt;业务逻辑控制层&lt;/span&gt;" placeholders="1" link="draw.io" id="K07zwGf8ft_wYBGuu_Em-29">
          <mxCell style="whiteSpace=wrap;html=1;strokeWidth=2;fillColor=swimlane;fontStyle=1;spacingTop=0;rounded=0;arcSize=9;points=[];fontFamily=Permanent Marker;hachureGap=8;fillWeight=1;" vertex="1" parent="1">
            <mxGeometry x="68" y="452" width="99" height="50" as="geometry" />
          </mxCell>
        </object>
        <object label="&lt;span style=&quot;color: rgba(0, 0, 0, 0); font-family: monospace; font-size: 0px; font-weight: 400; text-align: start; white-space: nowrap;&quot;&gt;%3CmxGraphModel%3E%3Croot%3E%3CmxCell%20id%3D%220%22%2F%3E%3CmxCell%20id%3D%221%22%20parent%3D%220%22%2F%3E%3Cobject%20label%3D%22%26lt%3Bspan%20style%3D%26quot%3Bfont-weight%3A%20normal%3B%26quot%3B%26gt%3Bdraw.io%26lt%3B%2Fspan%26gt%3B%22%20placeholders%3D%221%22%20link%3D%22draw.io%22%20id%3D%222%22%3E%3CmxCell%20style%3D%22whiteSpace%3Dwrap%3Bhtml%3D1%3BstrokeWidth%3D2%3BfillColor%3Dswimlane%3BfontStyle%3D1%3BspacingTop%3D0%3Brounded%3D0%3BarcSize%3D9%3Bpoints%3D%5B%5D%3BfontFamily%3DPermanent%20Marker%3BhachureGap%3D8%3BfillWeight%3D1%3B%22%20vertex%3D%221%22%20parent%3D%221%22%3E%3CmxGeometry%20x%3D%2227%22%20y%3D%2296%22%20width%3D%22140%22%20height%3D%2280%22%20as%3D%22geometry%22%2F%3E%3C%2FmxCell%3E%3C%2Fobject%3E%3C%2Froot%3E%3C%2FmxGraphModel%3E&lt;/span&gt;" placeholders="1" link="draw.io" id="K07zwGf8ft_wYBGuu_Em-30">
          <mxCell style="whiteSpace=wrap;html=1;strokeWidth=2;fillColor=swimlane;fontStyle=1;spacingTop=0;rounded=1;arcSize=9;points=[];fontFamily=Permanent Marker;hachureGap=8;fillWeight=1;" vertex="1" parent="1">
            <mxGeometry x="281" y="437" width="459" height="80" as="geometry" />
          </mxCell>
        </object>
        <object label="&lt;span style=&quot;font-size: 14px; text-align: left; white-space: pre; background-color: rgb(255, 255, 255);&quot;&gt;&lt;font face=&quot;Times New Roman&quot;&gt;SPringBoot&lt;/font&gt;&lt;/span&gt;" placeholders="1" link="draw.io" id="K07zwGf8ft_wYBGuu_Em-31">
          <mxCell style="whiteSpace=wrap;html=1;strokeWidth=2;fillColor=swimlane;fontStyle=0;spacingTop=0;rounded=0;arcSize=9;points=[];fontFamily=Permanent Marker;hachureGap=8;fillWeight=1;strokeColor=default;" vertex="1" parent="1">
            <mxGeometry x="477" y="460" width="86" height="34" as="geometry" />
          </mxCell>
        </object>
        <object label="&lt;font face=&quot;Times New Roman&quot;&gt;Service&lt;/font&gt;" placeholders="1" link="draw.io" id="K07zwGf8ft_wYBGuu_Em-32">
          <mxCell style="whiteSpace=wrap;html=1;strokeWidth=2;fillColor=swimlane;fontStyle=0;spacingTop=0;rounded=0;arcSize=9;points=[];fontFamily=Permanent Marker;hachureGap=8;fillWeight=1;strokeColor=default;" vertex="1" parent="1">
            <mxGeometry x="304" y="460" width="92" height="34" as="geometry" />
          </mxCell>
        </object>
        <object label="&lt;font face=&quot;Times New Roman&quot;&gt;Controller&lt;/font&gt;" placeholders="1" link="draw.io" id="K07zwGf8ft_wYBGuu_Em-33">
          <mxCell style="whiteSpace=wrap;html=1;strokeWidth=2;fillColor=swimlane;fontStyle=0;spacingTop=0;rounded=0;arcSize=9;points=[];fontFamily=Permanent Marker;hachureGap=8;fillWeight=1;strokeColor=default;" vertex="1" parent="1">
            <mxGeometry x="634" y="460" width="86" height="34" as="geometry" />
          </mxCell>
        </object>
        <object label="数据操作" placeholders="1" link="draw.io" id="K07zwGf8ft_wYBGuu_Em-36">
          <mxCell style="whiteSpace=wrap;html=1;strokeWidth=2;fillColor=swimlane;fontStyle=0;spacingTop=0;rounded=0;arcSize=9;points=[];fontFamily=Permanent Marker;hachureGap=8;fillWeight=1;strokeColor=none;" vertex="1" parent="1">
            <mxGeometry x="547" y="393" width="100" height="34" as="geometry" />
          </mxCell>
        </object>
        <object label="&lt;span style=&quot;font-weight: normal;&quot;&gt;运行环境&lt;/span&gt;" placeholders="1" link="draw.io" id="K07zwGf8ft_wYBGuu_Em-42">
          <mxCell style="whiteSpace=wrap;html=1;strokeWidth=2;fillColor=swimlane;fontStyle=1;spacingTop=0;rounded=0;arcSize=9;points=[];fontFamily=Permanent Marker;hachureGap=8;fillWeight=1;" vertex="1" parent="1">
            <mxGeometry x="68" y="68" width="99" height="50" as="geometry" />
          </mxCell>
        </object>
        <object label="&lt;span style=&quot;color: rgba(0, 0, 0, 0); font-family: monospace; font-size: 0px; font-weight: 400; text-align: start; white-space: nowrap;&quot;&gt;%3CmxGraphModel%3E%3Croot%3E%3CmxCell%20id%3D%220%22%2F%3E%3CmxCell%20id%3D%221%22%20parent%3D%220%22%2F%3E%3Cobject%20label%3D%22%26lt%3Bspan%20style%3D%26quot%3Bfont-weight%3A%20normal%3B%26quot%3B%26gt%3Bdraw.io%26lt%3B%2Fspan%26gt%3B%22%20placeholders%3D%221%22%20link%3D%22draw.io%22%20id%3D%222%22%3E%3CmxCell%20style%3D%22whiteSpace%3Dwrap%3Bhtml%3D1%3BstrokeWidth%3D2%3BfillColor%3Dswimlane%3BfontStyle%3D1%3BspacingTop%3D0%3Brounded%3D0%3BarcSize%3D9%3Bpoints%3D%5B%5D%3BfontFamily%3DPermanent%20Marker%3BhachureGap%3D8%3BfillWeight%3D1%3B%22%20vertex%3D%221%22%20parent%3D%221%22%3E%3CmxGeometry%20x%3D%2227%22%20y%3D%2296%22%20width%3D%22140%22%20height%3D%2280%22%20as%3D%22geometry%22%2F%3E%3C%2FmxCell%3E%3C%2Fobject%3E%3C%2Froot%3E%3C%2FmxGraphModel%3E&lt;/span&gt;" placeholders="1" link="draw.io" id="K07zwGf8ft_wYBGuu_Em-43">
          <mxCell style="whiteSpace=wrap;html=1;strokeWidth=2;fillColor=swimlane;fontStyle=1;spacingTop=0;rounded=1;arcSize=9;points=[];fontFamily=Permanent Marker;hachureGap=8;fillWeight=1;" vertex="1" parent="1">
            <mxGeometry x="284.5" y="53" width="459" height="80" as="geometry" />
          </mxCell>
        </object>
        <object label="&lt;span style=&quot;font-weight: normal;&quot;&gt;Window11&lt;/span&gt;" placeholders="1" link="draw.io" id="K07zwGf8ft_wYBGuu_Em-44">
          <mxCell style="whiteSpace=wrap;html=1;strokeWidth=2;fillColor=swimlane;fontStyle=1;spacingTop=0;rounded=0;arcSize=9;points=[];fontFamily=Permanent Marker;hachureGap=8;fillWeight=1;" vertex="1" parent="1">
            <mxGeometry x="323" y="76" width="81" height="34" as="geometry" />
          </mxCell>
        </object>
        <object label="&lt;span style=&quot;font-size: 10.5pt; font-family: 宋体; background-image: initial; background-position: initial; background-size: initial; background-repeat: initial; background-attachment: initial; background-origin: initial; background-clip: initial; font-weight: normal;&quot; lang=&quot;EN-US&quot;&gt;JDK 1.8&lt;/span&gt;" placeholders="1" link="draw.io" id="K07zwGf8ft_wYBGuu_Em-45">
          <mxCell style="whiteSpace=wrap;html=1;strokeWidth=2;fillColor=swimlane;fontStyle=1;spacingTop=0;rounded=0;arcSize=9;points=[];fontFamily=Permanent Marker;hachureGap=8;fillWeight=1;" vertex="1" parent="1">
            <mxGeometry x="482" y="76" width="81" height="34" as="geometry" />
          </mxCell>
        </object>
        <object label="&lt;span style=&quot;font-size: 10.5pt; font-family: 宋体; background-image: initial; background-position: initial; background-size: initial; background-repeat: initial; background-attachment: initial; background-origin: initial; background-clip: initial;&quot; lang=&quot;EN-US&quot;&gt;&lt;span style=&quot;font-weight: normal;&quot;&gt;Tomcat 7&lt;/span&gt;&lt;/span&gt;" placeholders="1" link="draw.io" id="K07zwGf8ft_wYBGuu_Em-46">
          <mxCell style="whiteSpace=wrap;html=1;strokeWidth=2;fillColor=swimlane;fontStyle=1;spacingTop=0;rounded=0;arcSize=9;points=[];fontFamily=Permanent Marker;hachureGap=8;fillWeight=1;" vertex="1" parent="1">
            <mxGeometry x="641" y="76" width="81" height="34" as="geometry" />
          </mxCell>
        </object>
        <mxCell id="K07zwGf8ft_wYBGuu_Em-47" value="" style="html=1;shadow=0;dashed=0;align=center;verticalAlign=middle;shape=mxgraph.arrows2.twoWayArrow;dy=0.59;dx=18.44;hachureGap=4;fontFamily=Architects Daughter;fontSource=https%3A%2F%2Ffonts.googleapis.com%2Fcss%3Ffamily%3DArchitects%2BDaughter;rotation=90;" vertex="1" parent="1">
          <mxGeometry x="479.5" y="244" width="65" height="60" as="geometry" />
        </mxCell>
        <object label="&lt;span style=&quot;font-weight: normal;&quot;&gt;控制层&lt;/span&gt;" placeholders="1" link="draw.io" id="K07zwGf8ft_wYBGuu_Em-53">
          <mxCell style="whiteSpace=wrap;html=1;strokeWidth=2;fillColor=swimlane;fontStyle=1;spacingTop=0;rounded=0;arcSize=9;points=[];fontFamily=Permanent Marker;hachureGap=8;fillWeight=1;" vertex="1" parent="1">
            <mxGeometry x="68" y="588" width="99" height="50" as="geometry" />
          </mxCell>
        </object>
        <object label="&lt;span style=&quot;color: rgba(0, 0, 0, 0); font-family: monospace; font-size: 0px; font-weight: 400; text-align: start; white-space: nowrap;&quot;&gt;%3CmxGraphModel%3E%3Croot%3E%3CmxCell%20id%3D%220%22%2F%3E%3CmxCell%20id%3D%221%22%20parent%3D%220%22%2F%3E%3Cobject%20label%3D%22%26lt%3Bspan%20style%3D%26quot%3Bfont-weight%3A%20normal%3B%26quot%3B%26gt%3Bdraw.io%26lt%3B%2Fspan%26gt%3B%22%20placeholders%3D%221%22%20link%3D%22draw.io%22%20id%3D%222%22%3E%3CmxCell%20style%3D%22whiteSpace%3Dwrap%3Bhtml%3D1%3BstrokeWidth%3D2%3BfillColor%3Dswimlane%3BfontStyle%3D1%3BspacingTop%3D0%3Brounded%3D0%3BarcSize%3D9%3Bpoints%3D%5B%5D%3BfontFamily%3DPermanent%20Marker%3BhachureGap%3D8%3BfillWeight%3D1%3B%22%20vertex%3D%221%22%20parent%3D%221%22%3E%3CmxGeometry%20x%3D%2227%22%20y%3D%2296%22%20width%3D%22140%22%20height%3D%2280%22%20as%3D%22geometry%22%2F%3E%3C%2FmxCell%3E%3C%2Fobject%3E%3C%2Froot%3E%3C%2FmxGraphModel%3E&lt;/span&gt;" placeholders="1" link="draw.io" id="K07zwGf8ft_wYBGuu_Em-54">
          <mxCell style="whiteSpace=wrap;html=1;strokeWidth=2;fillColor=swimlane;fontStyle=1;spacingTop=0;rounded=1;arcSize=9;points=[];fontFamily=Permanent Marker;hachureGap=8;fillWeight=1;" vertex="1" parent="1">
            <mxGeometry x="281" y="573" width="459" height="80" as="geometry" />
          </mxCell>
        </object>
        <object label="&lt;span style=&quot;text-align: left; white-space: pre; background-color: rgb(255, 255, 255);&quot;&gt;&lt;span style=&quot;font-family: &amp;quot;Times New Roman&amp;quot;; font-size: 14px;&quot;&gt;Web&lt;/span&gt;&lt;font data-font-src=&quot;https://fonts.googleapis.com/css?family=%E5%AE%8B%E4%BD%93&quot; face=&quot;宋体&quot; style=&quot;font-size: 12px;&quot;&gt;客户端&lt;/font&gt;&lt;/span&gt;" placeholders="1" link="draw.io" id="K07zwGf8ft_wYBGuu_Em-55">
          <mxCell style="whiteSpace=wrap;html=1;strokeWidth=2;fillColor=swimlane;fontStyle=0;spacingTop=0;rounded=0;arcSize=9;points=[];fontFamily=Permanent Marker;hachureGap=8;fillWeight=1;strokeColor=default;" vertex="1" parent="1">
            <mxGeometry x="477" y="596" width="86" height="34" as="geometry" />
          </mxCell>
        </object>
        <object label="&lt;span style=&quot;border: 0px solid rgb(227, 227, 227); box-sizing: border-box; --tw-border-spacing-x:0; --tw-border-spacing-y:0; --tw-translate-x:0; --tw-translate-y:0; --tw-rotate:0; --tw-skew-x:0; --tw-skew-y:0; --tw-scale-x:1; --tw-scale-y:1; --tw-pan-x: ; --tw-pan-y: ; --tw-pinch-zoom: ; --tw-scroll-snap-strictness:proximity; --tw-gradient-from-position: ; --tw-gradient-via-position: ; --tw-gradient-to-position: ; --tw-ordinal: ; --tw-slashed-zero: ; --tw-numeric-figure: ; --tw-numeric-spacing: ; --tw-numeric-fraction: ; --tw-ring-inset: ; --tw-ring-offset-width:0px; --tw-ring-offset-color:#fff; --tw-ring-color:rgba(69,89,164,0.5); --tw-ring-offset-shadow:0 0 transparent; --tw-ring-shadow:0 0 transparent; --tw-shadow:0 0 transparent; --tw-shadow-colored:0 0 transparent; --tw-blur: ; --tw-brightness: ; --tw-contrast: ; --tw-grayscale: ; --tw-hue-rotate: ; --tw-invert: ; --tw-saturate: ; --tw-sepia: ; --tw-drop-shadow: ; --tw-backdrop-blur: ; --tw-backdrop-brightness: ; --tw-backdrop-contrast: ; --tw-backdrop-grayscale: ; --tw-backdrop-hue-rotate: ; --tw-backdrop-invert: ; --tw-backdrop-opacity: ; --tw-backdrop-saturate: ; --tw-backdrop-sepia: ; --tw-contain-size: ; --tw-contain-layout: ; --tw-contain-paint: ; --tw-contain-style: ; color: rgb(13, 13, 13); text-align: left; white-space: pre-wrap;&quot;&gt;&lt;font face=&quot;Times New Roman&quot; style=&quot;&quot;&gt;REST API&lt;/font&gt;&lt;/span&gt;" placeholders="1" link="draw.io" id="K07zwGf8ft_wYBGuu_Em-56">
          <mxCell style="whiteSpace=wrap;html=1;strokeWidth=2;fillColor=swimlane;fontStyle=0;spacingTop=0;rounded=0;arcSize=9;points=[];fontFamily=Permanent Marker;hachureGap=8;fillWeight=1;strokeColor=default;" vertex="1" parent="1">
            <mxGeometry x="304" y="596" width="92" height="34" as="geometry" />
          </mxCell>
        </object>
        <object label="&lt;font face=&quot;宋体&quot;&gt;用户界面&lt;/font&gt;" placeholders="1" link="draw.io" id="K07zwGf8ft_wYBGuu_Em-57">
          <mxCell style="whiteSpace=wrap;html=1;strokeWidth=2;fillColor=swimlane;fontStyle=0;spacingTop=0;rounded=0;arcSize=9;points=[];fontFamily=Permanent Marker;hachureGap=8;fillWeight=1;strokeColor=default;" vertex="1" parent="1">
            <mxGeometry x="634" y="596" width="86" height="34" as="geometry" />
          </mxCell>
        </object>
        <object label="&lt;font face=&quot;Times New Roman&quot;&gt;HTTP&lt;/font&gt;&lt;font data-font-src=&quot;https://fonts.googleapis.com/css?family=%E5%AE%8B%E4%BD%93&quot; face=&quot;宋体&quot;&gt;请求&lt;/font&gt;" placeholders="1" link="draw.io" id="K07zwGf8ft_wYBGuu_Em-60">
          <mxCell style="whiteSpace=wrap;html=1;strokeWidth=2;fillColor=swimlane;fontStyle=0;spacingTop=0;rounded=0;arcSize=9;points=[];fontFamily=Permanent Marker;hachureGap=8;fillWeight=1;strokeColor=none;" vertex="1" parent="1">
            <mxGeometry x="553" y="529" width="100" height="34" as="geometry" />
          </mxCell>
        </object>
        <object label="&lt;span style=&quot;font-weight: normal;&quot;&gt;用户层&lt;/span&gt;" placeholders="1" link="draw.io" id="K07zwGf8ft_wYBGuu_Em-67">
          <mxCell style="whiteSpace=wrap;html=1;strokeWidth=2;fillColor=swimlane;fontStyle=1;spacingTop=0;rounded=0;arcSize=9;points=[];fontFamily=Permanent Marker;hachureGap=8;fillWeight=1;" vertex="1" parent="1">
            <mxGeometry x="68" y="706" width="99" height="50" as="geometry" />
          </mxCell>
        </object>
        <object label="&lt;span style=&quot;color: rgba(0, 0, 0, 0); font-family: monospace; font-size: 0px; font-weight: 400; text-align: start; white-space: nowrap;&quot;&gt;%3CmxGraphModel%3E%3Croot%3E%3CmxCell%20id%3D%220%22%2F%3E%3CmxCell%20id%3D%221%22%20parent%3D%220%22%2F%3E%3Cobject%20label%3D%22%26lt%3Bspan%20style%3D%26quot%3Bfont-weight%3A%20normal%3B%26quot%3B%26gt%3Bdraw.io%26lt%3B%2Fspan%26gt%3B%22%20placeholders%3D%221%22%20link%3D%22draw.io%22%20id%3D%222%22%3E%3CmxCell%20style%3D%22whiteSpace%3Dwrap%3Bhtml%3D1%3BstrokeWidth%3D2%3BfillColor%3Dswimlane%3BfontStyle%3D1%3BspacingTop%3D0%3Brounded%3D0%3BarcSize%3D9%3Bpoints%3D%5B%5D%3BfontFamily%3DPermanent%20Marker%3BhachureGap%3D8%3BfillWeight%3D1%3B%22%20vertex%3D%221%22%20parent%3D%221%22%3E%3CmxGeometry%20x%3D%2227%22%20y%3D%2296%22%20width%3D%22140%22%20height%3D%2280%22%20as%3D%22geometry%22%2F%3E%3C%2FmxCell%3E%3C%2Fobject%3E%3C%2Froot%3E%3C%2FmxGraphModel%3E&lt;/span&gt;" placeholders="1" link="draw.io" id="K07zwGf8ft_wYBGuu_Em-68">
          <mxCell style="whiteSpace=wrap;html=1;strokeWidth=2;fillColor=swimlane;fontStyle=1;spacingTop=0;rounded=1;arcSize=9;points=[];fontFamily=Permanent Marker;hachureGap=8;fillWeight=1;" vertex="1" parent="1">
            <mxGeometry x="281" y="691" width="459" height="80" as="geometry" />
          </mxCell>
        </object>
        <object label="&lt;span style=&quot;border: 0px solid rgb(227, 227, 227); box-sizing: border-box; --tw-border-spacing-x:0; --tw-border-spacing-y:0; --tw-translate-x:0; --tw-translate-y:0; --tw-rotate:0; --tw-skew-x:0; --tw-skew-y:0; --tw-scale-x:1; --tw-scale-y:1; --tw-pan-x: ; --tw-pan-y: ; --tw-pinch-zoom: ; --tw-scroll-snap-strictness:proximity; --tw-gradient-from-position: ; --tw-gradient-via-position: ; --tw-gradient-to-position: ; --tw-ordinal: ; --tw-slashed-zero: ; --tw-numeric-figure: ; --tw-numeric-spacing: ; --tw-numeric-fraction: ; --tw-ring-inset: ; --tw-ring-offset-width:0px; --tw-ring-offset-color:#fff; --tw-ring-color:rgba(69,89,164,0.5); --tw-ring-offset-shadow:0 0 transparent; --tw-ring-shadow:0 0 transparent; --tw-shadow:0 0 transparent; --tw-shadow-colored:0 0 transparent; --tw-blur: ; --tw-brightness: ; --tw-contrast: ; --tw-grayscale: ; --tw-hue-rotate: ; --tw-invert: ; --tw-saturate: ; --tw-sepia: ; --tw-drop-shadow: ; --tw-backdrop-blur: ; --tw-backdrop-brightness: ; --tw-backdrop-contrast: ; --tw-backdrop-grayscale: ; --tw-backdrop-hue-rotate: ; --tw-backdrop-invert: ; --tw-backdrop-opacity: ; --tw-backdrop-saturate: ; --tw-backdrop-sepia: ; --tw-contain-size: ; --tw-contain-layout: ; --tw-contain-paint: ; --tw-contain-style: ; color: rgb(13, 13, 13); text-align: left; white-space: pre-wrap;&quot;&gt;&lt;font data-font-src=&quot;https://fonts.googleapis.com/css?family=%E5%AE%8B%E4%BD%93&quot; face=&quot;宋体&quot;&gt;管理员模块&lt;/font&gt;&lt;/span&gt;" placeholders="1" link="draw.io" id="K07zwGf8ft_wYBGuu_Em-70">
          <mxCell style="whiteSpace=wrap;html=1;strokeWidth=2;fillColor=swimlane;fontStyle=0;spacingTop=0;rounded=0;arcSize=9;points=[];fontFamily=Permanent Marker;hachureGap=8;fillWeight=1;strokeColor=default;" vertex="1" parent="1">
            <mxGeometry x="358" y="712" width="125" height="46" as="geometry" />
          </mxCell>
        </object>
        <object label="&lt;font face=&quot;宋体&quot;&gt;志愿者模块&lt;/font&gt;" placeholders="1" link="draw.io" id="K07zwGf8ft_wYBGuu_Em-71">
          <mxCell style="whiteSpace=wrap;html=1;strokeWidth=2;fillColor=swimlane;fontStyle=0;spacingTop=0;rounded=0;arcSize=9;points=[];fontFamily=Permanent Marker;hachureGap=8;fillWeight=1;strokeColor=default;" vertex="1" parent="1">
            <mxGeometry x="545" y="711" width="128" height="48" as="geometry" />
          </mxCell>
        </object>
        <mxCell id="K07zwGf8ft_wYBGuu_Em-72" value="" style="html=1;shadow=0;dashed=0;align=center;verticalAlign=middle;shape=mxgraph.arrows2.twoWayArrow;dy=0.59;dx=18.44;hachureGap=4;fontFamily=Architects Daughter;fontSource=https%3A%2F%2Ffonts.googleapis.com%2Fcss%3Ffamily%3DArchitects%2BDaughter;rotation=90;" vertex="1" parent="1">
          <mxGeometry x="488" y="642" width="65" height="60" as="geometry" />
        </mxCell>
        <mxCell id="K07zwGf8ft_wYBGuu_Em-73" value="" style="html=1;shadow=0;dashed=0;align=center;verticalAlign=middle;shape=mxgraph.arrows2.twoWayArrow;dy=0.59;dx=18.44;hachureGap=4;fontFamily=Architects Daughter;fontSource=https%3A%2F%2Ffonts.googleapis.com%2Fcss%3Ffamily%3DArchitects%2BDaughter;rotation=90;" vertex="1" parent="1">
          <mxGeometry x="484" y="515" width="65" height="60" as="geometry" />
        </mxCell>
        <mxCell id="K07zwGf8ft_wYBGuu_Em-74" value="" style="html=1;shadow=0;dashed=0;align=center;verticalAlign=middle;shape=mxgraph.arrows2.twoWayArrow;dy=0.59;dx=18.44;hachureGap=4;fontFamily=Architects Daughter;fontSource=https%3A%2F%2Ffonts.googleapis.com%2Fcss%3Ffamily%3DArchitects%2BDaughter;rotation=90;" vertex="1" parent="1">
          <mxGeometry x="485" y="383" width="65" height="60" as="geometry" />
        </mxCell>
      </root>
    </mxGraphModel>
  </diagram>
</mxfile>
